<svg fill="#fff" xmlns="http://www.w3.org/2000/svg" width="800" height="800" viewBox="924 565.952 200 200" xml:space="preserve" stroke="#fff"><path d="M984.585 626.893c0 14-9.609 25.348-21.461 25.348s-21.459-11.348-21.459-25.348c0-13.999 9.607-25.345 21.459-25.345s21.461 11.347 21.461 25.345z"/><path d="M987.586 671.591a14.08 14.08 0 0 1 5.041-1.854c-3.606-5.088-6.161-10.546-7.637-17.078-.404-2.387-3.672-2.667-6.102-.687-4.545 3.706-9.849 6.186-15.764 6.186-6.03 0-11.577-2.399-16.025-6.414a4.312 4.312 0 0 0-5.142-.479c-8.444 5.157-14.835 13.344-17.623 23.064a8.657 8.657 0 0 0 1.411 7.59 8.66 8.66 0 0 0 6.906 3.443h38.669a69.307 69.307 0 0 1 16.266-13.771zM1063.414 626.893c0 14 9.61 25.348 21.462 25.348s21.46-11.348 21.46-25.348c0-13.999-9.608-25.345-21.46-25.345s-21.462 11.347-21.462 25.345z"/><path d="M1060.413 671.591a14.074 14.074 0 0 0-5.04-1.854c3.605-5.088 6.16-10.546 7.637-17.078.404-2.387 3.674-2.667 6.103-.687 4.545 3.706 9.849 6.186 15.764 6.186 6.03 0 11.576-2.399 16.024-6.414a4.313 4.313 0 0 1 5.143-.479c8.443 5.157 14.834 13.344 17.623 23.064a8.657 8.657 0 0 1-8.318 11.033h-38.668a69.337 69.337 0 0 0-16.268-13.771z"/><g><path d="M1082.474 713.402c-4.198-14.654-13.72-27.044-26.327-34.991a6.636 6.636 0 0 0-7.921.631c-6.765 5.958-15.136 9.506-24.226 9.506-9.268 0-17.791-3.686-24.626-9.856a6.625 6.625 0 0 0-7.901-.734c-12.977 7.925-22.8 20.505-27.082 35.445a13.298 13.298 0 0 0 2.166 11.663 13.308 13.308 0 0 0 10.615 5.29h92.521a13.29 13.29 0 0 0 12.781-16.954z"/><path d="M1056.98 640.499c0 21.512-14.767 38.955-32.98 38.955s-32.979-17.442-32.979-38.955c0-21.515 14.765-38.951 32.979-38.951s32.98 17.436 32.98 38.951z"/></g></svg>