<svg fill="#fff" xmlns="http://www.w3.org/2000/svg" width="800" height="800" viewBox="0 0 356.98 356.98" xml:space="preserve" stroke="#fff"><path d="M340.188 56.127c-15.288-20.089-39.344-31.63-73.577-35.302a86.246 86.246 0 0 0-8.707-.453c-30.354 0-60.594 14.24-79.413 36.863-18.834-22.623-49.062-36.863-79.401-36.863-3.005 0-5.915.171-8.743.453-34.182 3.672-58.231 15.219-73.528 35.296C1.65 76.024-3.295 103.007 2.133 136.315c7.926 48.323 70.505 107.171 120.778 154.464l1.149 1.081c14 13.192 26.097 24.571 33.973 33.051 1.065 1.188 10.664 11.697 21.173 11.697 10.574 0 19.96-10.665 20.812-11.686 8.37-9.079 21.96-21.947 35.38-34.636 49.714-47.161 111.581-105.853 119.43-153.99 5.452-33.283.54-60.254-14.64-80.169z"/></svg>