<svg xmlns="http://www.w3.org/2000/svg" viewBox="0 0 252 321"><path fill="#3393ff" d="M159.83 33.02c-9.67.88-20.93 5.9-29.91 9.96q-.92.41-.92-.59 0-6.08-.01-12.61c0-3.8-4.63-7-7.53-3.43-2.12 2.6-1.25 12.4-1.17 15.91a.76.76 0 0 1-1.06.71c-9.03-4.02-20.01-8.97-29.88-9.98a.55.54-18.2 0 0-.46.91c2.28 2.51 2.72 5.98 1.41 9.13-3.15 7.63-12.89 6.77-19.55 5.71a.53.52 11.6 0 0-.59.38c-.74 2.74-1.42 4.85-3.86 6.46q-8.6 5.66-19.31 4.16c-4.48-.63-9.86-2.98-14.41-3.58q-8.83-1.16-17.4.47a.49.49 0 0 1-.37-.89c5.72-3.9 12.92-4.63 19.7-4.56 4.49.05 20.58 1.49 23.51-1.61q1.44-1.53-.17-2.87-3.51-2.91-7.91-4.19a.32.32 0 0 1-.22-.4l.1-.32q.03-.1.13-.08c4.9.87 18.91 1.79 22.87-1.46a1.52 1.51-44.9 0 0 .01-2.34q-2.14-1.77-4.86-2.53a.43.43 0 0 1 .09-.84c2.69-.18 6.55-1.51 6.87-4.65.51-5.04-9.19-7.07-12.64-7.06a.4.4 0 0 1-.09-.79c10.81-2.43 20.18.08 31.03 3.77 2.6.88 16.14 4.5 13.62-2.8-1.85-5.36-9.08-6.83-14.86-7.28q-.89-.07-.23-.67c3.48-3.14 17.48.01 21.73.42a.92.92 0 0 0 .86-.4l9.23-13.42a1.19 1.19 0 0 1 1.96-.01l9.59 13.66a.72.71-23.2 0 0 .74.29c5-1.01 17.42-3.51 22.03-.46a.38.37 62 0 1-.21.69c-5.95-.09-15.11 2.1-15.68 8.85a1.29 1.27-60.7 0 0 .23.85c2.39 3.39 9.13 1.77 12.38.67 11.21-3.82 21.05-6.62 32.33-4.18a.37.36-39.6 0 1-.07.72c-3.69.1-10.92 1.8-12.42 5.69-1.47 3.82 3.54 5.84 6.31 6.3a.46.46 0 0 1 .04.9q-2.6.66-4.61 2.5a1.56 1.55 31.5 0 0 .64 2.65q10.95 3.02 22.4.92.47-.08.84.12.36.21-.04.32-5.4 1.59-9.53 5.36a.77.75-35.5 0 0-.16.91q1.29 2.42 3.65 2.62c12.1 1.06 30.76-2.61 40.36 4.87a.41.41 0 0 1-.33.73c-10.53-1.9-18.54-.7-28.89 2.41-7.24 2.18-25.6.6-25.9-9.97q-.01-.49-.5-.41c-5.59.97-14.85 1.93-18.82-3.56q-3.92-5.42.27-11.45a.4.4 0 0 0-.36-.63z"/><path fill="#3393ff" d="M133.83 65.77c-.05 5.08 2.57 6.82 4.27 10.96 2.36 5.76-6.18 11.97-10.84 13.31-3.83 1.11-9.44-4.89-11.57-7.72q-2.17-2.87-.76-6.25 2.31-5.5 2.98-11.43c.18-1.63 1.08-2.58 2.2-3.58a.68.68 0 0 1 1.14.45c.39 4.85.39 13.77 4 17.33q.3.29.7.18 4.23-1.15 4.49-4.84.44-6.38 1.03-12.86a.44.44 0 0 1 .75-.27c1.23 1.27 1.63 2.77 1.61 4.72zM16.57 126.96q-1.58-1.95-3.98-1.97-.52-.01-.56-.54l-.36-4.8a1.08 1.08 0 0 0-.42-.79c-2.95-2.36-5.9-3.4-6.4-7.91-1.59-14.44 10.38-28.63 20.1-38.18a1.22 1.22 0 0 0 .37-.85c.17-9.3 7.4-13.81 14.47-6.12q.34.37.85.38c1.78.02 9.08.3 9.67 3.09a1.15 1.14 59.5 0 1-.25.99c-2.29 2.71-6.16 2.85-9.43 2.57q-.56-.05-1.01.27-11.17 7.95-14.74 21.26-.12.47.36.48 7.47.05 11.19 6.39a.64.62 65.6 0 0 .73.29q8.97-2.79 18.02-.44a.34.34 0 0 1 .01.66c-26.57 7.68-31.2 39.65-29.8 62.65q.08 1.35 1.32.83c7.84-3.25 24.25-7.67 29.86 2a.49.49 0 0 1-.52.72c-16.97-3.29-24.81 10.39-31.18 23.26-8.56 17.27-30.59-2.13-10.95-8.34q.5-.16.52-.68c.34-9.49-.56-20.36-.22-28.29q.54-12.58 2.91-24.69a2.74 2.74 0 0 0-.56-2.24zM247.84 111.56c-.28 2.28-2.78 5.44-4.98 6.33a2.84 2.83 81.1 0 0-1.76 2.42l-.28 4.01a.72.71 89.6 0 1-.65.67c-3.69.31-4.74 2.4-4.14 5.92q1.58 9.31 2.31 18.69c.76 9.88-.29 21.76-.11 32.72q.01.54.52.7c16.08 4.9 4.42 20.98-7.11 12.83-3.7-2.62-6.78-10.71-8.65-14.08-5.23-9.46-14.87-16.13-26.08-13.84a.65.64 13.8 0 1-.63-1.04c7.34-8.86 20.62-5.36 29.75-1.81a.97.96-77.5 0 0 1.31-.84c1.57-23.26-3.14-54.45-29.69-62.41a.36.36 0 0 1 .01-.7q9.08-2.43 18.04.43.45.14.67-.27 3.55-6.55 11.12-6.46.57 0 .42-.55-3.52-13.53-15.1-21.32a1.38 1.36-31.5 0 0-.95-.22c-2.28.31-7.54.18-8.85-2.21q-1.21-2.24 1.2-3.06 3.98-1.37 8.15-1.22.54.02.85-.43c5.76-8.25 14.78-2.73 14.12 6.03a1.07 1.06 25.6 0 0 .3.83c10 10.37 22.11 23.12 20.21 38.88zM88.98 103.78c6.6 10.23 15.57 3.73 23.84 1.08a.64.64 0 0 1 .77.87q-6.59 14.72-8.89 30.96c-2.36 16.6 14.3 24.61 16.22 39.22 1.25 9.56-4.92 14.11-13.76 13.96-12.05-.21-21.25-11.92-25.65-22.22-6.24-14.6-1.43-21.47 9.01-31.21 4.56-4.25 6-8.78 4.35-14.73-1.51-5.41-16.36-8.49-21.01-13.95-8.88-10.41 1.1-27.35 10.14-33.8q3.15-2.24 6.84.01Q102.84 81.3 113 91c.86.81 2.07 1.58 2.03 2.91-.1 3.22-4.81 1.15-6.16.35q-6.85-4.09-13.9-7.8c-3.73-1.97-7.84-3.4-10.16.82-2.44 4.45 1.58 12.47 4.17 16.5zM153.56 109.44c8.43 1.24 13.76-10.83 14.91-17.2.98-5.45-3.65-9.83-8.73-7q-9.24 5.15-18.52 10.25-1.53.83-3.24-.49a.79.79 0 0 1-.3-.79q.44-2.13 2.24-3.79c5.06-4.68 21.26-18.64 26.08-17.59q1.33.28 2.98 1.49c8.34 6.08 16.85 20.23 11.66 30.65-5.84 11.75-29.28 8.75-22.48 26.5q.77 2.01 3.25 4.17c8.6 7.49 15.91 16.64 11.03 28.57-5.27 12.89-16.39 29.91-32.93 25.01-10.25-3.04-9.32-16.11-4.25-23.13 6.76-9.37 14.59-18.72 12.54-30.9q-2.49-14.85-8.85-29.96a.17.17 0 0 1 .18-.23c5.43.6 10.15 3.81 14.43 4.44z"/><path fill="#3393ff" d="M120.78 119.48c.07 7 11.72 7.13 11.48.01q-.25-7.38-1.6-14.45a.32.32 0 0 1 .59-.21c2.43 4.45 12.19 21.25 4.32 24.1q-8.9 3.23-18.01.27c-2.67-.87-2.94-7.34-2.52-8.95q2.16-8.25 6.04-14.1 1.46-2.21.92.38-1.29 6.27-1.22 12.95zM8.06 139.56c-1.6 3.04-1.39 5.33-2.14 8.09q-.23.86-.6.05c-2.26-4.94-4.83-9.74-1.99-13.97 2.11-3.16 6.71-1.77 6.06 2.16q-.28 1.67-1.33 3.67zM248.06 132.44c5.16 3.2 1.46 10.53-.25 14.73a.55.55 0 0 1-1.05-.15q-.51-5.09-2.98-9.3c-1.69-2.9.68-7.52 4.28-5.28zM130.49 137.2c21.84.16 1.94 20.94-3.5 26a1.13 1.13 0 0 1-1.55-.01q-7.45-7.23-12.19-15.8c-6.4-11.55 11.98-10.22 17.24-10.19zM81.89 238.05c-18.65 7.12-11.38 22.6-16.67 37.17a.6.6 0 0 1-1.15-.11c-2.41-14.75-7.1-27.55-17.87-38.1a.64.64 0 0 0-1.02.19q-1.84 3.88-5.42 6.34-.73.5-.54-.36c1.43-6.59 1.83-26.53-5.82-29.85q-.49-.22-.98.01c-6.1 2.9-1.76 10.06.56 13.97a.43.43 0 0 1-.3.64c-3.77.59-5.92-3.77-6.79-6.72q-.15-.49-.67-.47c-8.24.32-8.81 7.19-5.9 13.22a.72.72 0 0 1-.9.98q-5.41-1.99-6.63-6.96c-1.91-7.78 9.73-14.4 15.12-17.48a1.02 1.02 0 0 0-.19-1.85l-2.7-.89a.5.5 0 0 1-.04-.94q3.16-1.37 6.57-.63a.9.89-81.3 0 0 1.08-.8c.89-10.05 6.05-28.19 16.88-30.65 10.92-2.49 8.04 14.6-1.69 8.7q-.45-.28-.65.21c-6.35 15.51 3.79 50.38 17.27 60.24q.44.32.83-.08c6.65-6.95 12.02-11.89 22.25-11.53 4.02.14 7.68 0 8.77 4.22.87 3.37-1.68 5.83-4.96 5.23-2.2-.4-4.92-2.65-7.54-3.69a1.25 1.23 45.3 0 0-.9-.01zM225.6 210.38q6.79 3.8 12.55 9.1c5.89 5.42 3.2 12.92-3.99 15.4a.55.54-85.8 0 1-.66-.77c2.96-5.76 2.38-13.17-5.83-13.36a.73.73 0 0 0-.72.54q-1.24 4.52-5.19 6.77a1.03 1.03 0 0 1-1.38-1.46c2.16-3.33 5.94-11.36-.35-13.19q-.42-.12-.83.03-2.3.84-3.29 3.22-5.45 13.11-2.18 26.89.15.6-.37.26-3.67-2.46-5.44-6.52a.9.89 55 0 0-1.47-.26q-14.94 15.75-17.38 37.5a.99.99 0 0 1-1.95.08c-1.35-6.94-1.6-14.15-2.91-21.16-1.41-7.47-4.45-11.8-11.71-14.68-5.33-2.1-8.02 5.18-13.22 2.61-4.01-1.98-1.49-8.05 2.45-8.79 11.85-2.22 19.23 3.15 26.91 11.18a.62.62 0 0 0 .82.07q5.26-3.85 8.62-10.26c7.19-13.73 14.45-35.33 8.6-49.65q-.2-.49-.67-.25c-8.99 4.5-12.5-8.6-4.08-8.9 12.96-.45 18.5 21.09 19.2 31.09q.03.52.54.4 3.33-.74 6.56.42a.62.62 0 0 1 .06 1.14l-2.65 1.28a.72.71 46.9 0 0-.04 1.27zM130.8 222.48c-2.93 2.08-3.62 7.06-3.84 10.41a.54.54 0 0 1-1.08.02c-.2-1.91-2.01-13.34-6.02-9.83q-2.39 2.1-3.97 4.6a.7.7 0 0 1-1.29-.27c-1.23-8.06-7.32-15.71-11.16-22.93a2.84 2.84 0 0 1 1.43-3.96c8.92-3.65 16.01-1.66 20.65-12.13a.81.81 0 0 1 1.48 0q3.84 8.49 13.18 10.21c2.71.51 7.04.87 9 2.96a1.16 1.14-65.3 0 1 .31.86q-.08 1.77-.52 2.54c-4.23 7.44-9.22 14.72-11.14 22.95a.59.58-50 0 1-1.11.1q-1.55-3.66-4.92-5.58a.92.91 41.8 0 0-1 .05z"/><path fill="#3393ff" d="M175.36 274.52q-.18.25-.48.34a.49.48 6.5 0 1-.57-.71q3.07-4.93 3.87-10.67a.96.95 20 0 0-.45-.95c-5.84-3.56-11.66 10.19-12.88 13.93-1.82 5.55-6 10.23-10.03 14.34q-.4.41.09.72c3.02 1.91 1.23 9.88.82 12.97q-.25 1.87-1.41 2.78a1.07 1.07 0 0 1-1.71-.64c-.57-2.89-.23-7.94-4.24-8.21-4.81-.32-7.36 3.14-11.09 4.97a.55.54-36.4 0 0-.14.88c3.47 3.31 10.58 9.3 9.51 14.45a1.79 1.79 0 0 1-2.43 1.29c-6.17-2.51-10.43-7.84-16.78-10.75a1.22 1.22 0 0 0-.97-.02c-6.4 2.52-10.55 9.49-17.44 10.82a1.36 1.36 0 0 1-1.61-1.18c-.69-6.22 5.8-10.56 9.61-14.62q.38-.4-.1-.68c-5.55-3.22-15.38-11.57-15.28 2.96a1.17 1.17 0 0 1-1.95.88c-1.89-1.66-1.92-7.65-2.06-10.07-.14-2.48-.76-4.09 1.41-5.88q.4-.34.04-.71c-3.23-3.48-8.35-8.93-9.78-13.41-.98-3.08-7.38-19.47-12.63-14.83q-.38.32-.41.82c-.24 4.01 1.7 7.59 3.74 10.85a.44.44 0 0 1-.6.61c-2.73-1.57-4.06-3.42-5.03-6.57-2.53-8.15.29-10.57 6.27-15.21a1.02 1.01-22.2 0 0 .39-.91l-.64-6.07a.32.32 0 0 1 .55-.25c3.29 3.55 6.15 6.9 7.4 11.84 4.65 18.26 21.67 31.95 37.68 40.22a2.23 2.22 44.6 0 0 2.07-.01c15.43-8.26 34.03-22.52 37.74-40.54.94-4.57 4.35-8.25 7.38-11.54a.34.34 0 0 1 .59.27l-.74 6.31a.8.8 0 0 0 .34.74c3.25 2.24 7.17 5.41 7.29 9.69q.2 6.57-4.76 10.97-.04.03-.58.78z"/></svg>