<svg xmlns="http://www.w3.org/2000/svg" viewBox="0 0 258 319"><path fill="#f33" d="m83.65 40.41 44.14-36.26a1.74 1.74 0 0 1 2.2 0l44.73 36.32q.4.32.83.05c4.24-2.65 20.19-11.56 24.13-9.26 4.04 2.35 7.66 26.05 8.62 31.88.18 1.13.9 2.87 1.66 3.74 10.4 12.05 21.78 24.7 30.33 38.11a1.3 1.3 0 0 1-.31 1.75c-13.23 9.98-27.68 23.06-30.4 40.43q-.51 3.27.58 6.39c1.57 4.49 12.57 1.94 15.73.59 10.84-4.63 20.2-12.39 29.85-18.97a.35.35 0 0 1 .51.46q-14.96 27.76-33.31 53.29-1.05 1.46-4.63 5.35a.71.7-52 0 1-.91.12c-5.04-3.3-8.23-6.06-15.64-8.64-7.85-2.75-14.56-.11-20.46 5.81-12.51 12.58-21.22 31.62-18.55 49.93q1.02 6.96 6.65 9.88c3.84 1.99 9.11.53 13.05-.72a.9.9 0 0 1 1.09 1.24q-14.96 32.23-32.56 62.96c-.68 1.18-1.77 1.94-2.78 2.77a.63.62 67.6 0 1-1.02-.43c-.44-4.81-1.6-9.72-1.94-14.29-.56-7.69-1.63-15.88-1.86-23q-.85-25.68 2.39-51.17 1.06-8.36 3.47-15.54 5.92-17.71 15.5-33.77c3.48-5.84 9.24-12.55 12.91-19.02q4.15-7.3 6.26-16.9c8.69-39.59-16.13-68.82-53.46-76.76-4.89-1.05-13.72 2.72-18.4 4.53-20.09 7.75-36.41 24.51-39.33 46.21-1.58 11.74-.43 26.04 4.98 37.95 3.92 8.63 10.97 15.75 15.91 24.15 9.44 16.05 18.14 36.02 19.7 54.75q2.14 25.86 1.91 33.16-.74 23.09-3.85 45.98-.25 1.84-.89 3.4a1.12 1.11-43.6 0 1-2.08-.05c-.46-1.29-1.57-2.19-2.15-3.21q-16.99-29.85-31.35-61.41a.92.92 0 0 1 1.06-1.27c3.97.98 9.17 2.23 13.23.19 4.66-2.35 7.18-9.15 7.1-13.87q-.48-28.07-20.84-47.17c-10.7-10.04-24.86-3.79-34.27 4.4q-.39.34-.82.05-2.52-1.75-3.11-2.56-19.77-27.05-34.74-55.55-1.17-2.25.87-.76 8.07 5.86 16.74 11.75c8.01 5.43 15.95 9.91 26.06 8.17q.48-.08.8-.44c2.69-2.96.64-12.18-.57-15.73-4.31-12.61-17.36-24.85-27.87-32.28a2.1 2.09 34.9 0 1-.52-2.88c9.01-13.29 20.04-25.82 30.71-37.8a1.8 1.79-19.2 0 0 .43-.88q2.97-16.59 6-27.89.65-2.44 2.64-5.85.26-.44.74-.6c5.48-1.8 19.38 6.26 24.25 9.23q.45.28.86-.06z"/><path fill="#f33" d="M137.49 90.1c6.92 9.17 13.97 18.15 20.57 27.45a1.02 1.02 0 0 1-.03 1.22q-13.12 16.5-26 32.5-.92 1.13-2.71 1.74a1.17 1.15 50.6 0 1-.96-.1q-1.94-1.11-3.93-3.59-11.78-14.72-24.34-30.56-.5-.64-.02-1.3 10.13-13.84 20.85-27.79c2.05-2.67 6.97-9.52 10.32-6.44q3.45 3.17 6.25 6.87z"/></svg>